<?xml version="1.0" encoding="UTF-8"?>
<!--
  THE VINE - Business Card (Front)
  Size: 3.5" x 2" (US standard), 300 DPI = 1050 x 600 units
  Print: Export as PDF or print directly from browser/Illustrator/Inkscape
  Bleed: None (add 1/8" bleed in printer if needed)

  Colors: Editorial palette (matches thevineathens.church)
    Paper: #f4ede0 (warm newsprint)
    Ink: #1f1d18 (deep warm black)
    Rust: #c8553d (primary accent)
    Teal: #2a5f5b (leaf fill)
    Gold: #b88828 (fruit/highlight)
-->
<svg xmlns="http://www.w3.org/2000/svg" viewBox="0 0 1050 600" width="1050" height="600">
  <!-- Card background (warm newsprint paper) -->
  <rect width="1050" height="600" fill="#f4ede0"/>

  <!-- Editorial border frame -->
  <rect x="20" y="20" width="1010" height="560" fill="none" stroke="#1f1d18" stroke-width="1.5"/>

  <!-- Woodcut vine leaf logo (from site logo-icon.svg) -->
  <g transform="translate(525, 155)">
    <g transform="scale(0.55) translate(-100, -96)">
      <path d="M100 188 C100 188 38 138 38 82 C38 40 64 12 100 4 C136 12 162 40 162 82 C162 138 100 188 100 188Z"
            fill="#2a5f5b" stroke="#1f1d18" stroke-width="6" stroke-linejoin="round"/>
      <path d="M100 178 C100 178 50 132 50 82 C50 48 70 22 100 16 L100 178Z"
            fill="#357b76" opacity="0.6"/>
      <path d="M100 32 L100 162" stroke="#f4ede0" stroke-width="6" stroke-linecap="round"/>
      <path d="M100 60 C84 52 70 56 60 64" fill="none" stroke="#f4ede0" stroke-width="5" stroke-linecap="round"/>
      <path d="M100 92 C116 84 130 88 140 96" fill="none" stroke="#f4ede0" stroke-width="5" stroke-linecap="round"/>
      <path d="M100 124 C84 116 70 120 60 132" fill="none" stroke="#f4ede0" stroke-width="5" stroke-linecap="round"/>
      <ellipse cx="56" cy="64" rx="8" ry="4.5" fill="#f4ede0" transform="rotate(-30 56 64)"/>
      <ellipse cx="144" cy="96" rx="8" ry="4.5" fill="#f4ede0" transform="rotate(30 144 96)"/>
      <ellipse cx="56" cy="132" rx="8" ry="4.5" fill="#f4ede0" transform="rotate(-30 56 132)"/>
      <circle cx="100" cy="60" r="6" fill="#c8553d"/>
      <circle cx="100" cy="92" r="6" fill="#c8553d"/>
      <circle cx="100" cy="124" r="6" fill="#c8553d"/>
      <circle cx="100" cy="156" r="8" fill="#b88828"/>
      <circle cx="100" cy="156" r="3" fill="#1f1d18" opacity="0.45"/>
    </g>
  </g>

  <!-- Decorative rust rule -->
  <line x1="430" y1="228" x2="620" y2="228" stroke="#c8553d" stroke-width="2"/>

  <!-- "The" prefix -->
  <text x="525" y="272" text-anchor="middle"
        font-family="'Playfair Display', Georgia, serif"
        font-size="26" font-weight="500" font-style="italic" fill="#6b6556"
        letter-spacing="2px">The</text>

  <!-- "Vine" title -->
  <text x="525" y="362" text-anchor="middle"
        font-family="'Playfair Display', Georgia, serif"
        font-size="95" font-weight="900" font-style="italic" fill="#1f1d18"
        letter-spacing="-2px">Vine</text>

  <!-- Tagline -->
  <text x="525" y="418" text-anchor="middle"
        font-family="'Caveat', cursive"
        font-size="34" font-weight="700" fill="#c8553d">Where You Already Belong</text>

  <!-- Decorative rust rule -->
  <line x1="445" y1="445" x2="605" y2="445" stroke="#c8553d" stroke-width="1.5"/>

  <!-- Website URL -->
  <text x="525" y="490" text-anchor="middle"
        font-family="'JetBrains Mono', monospace"
        font-size="18" fill="#8e8775" letter-spacing="1.2px">thevineathens.church</text>

  <!-- Small editorial leaf marks in corners -->
  <g transform="translate(46, 46) scale(0.12) translate(-100, -96)" opacity="0.2">
    <path d="M100 188 C100 188 38 138 38 82 C38 40 64 12 100 4 C136 12 162 40 162 82 C162 138 100 188 100 188Z"
          fill="#2a5f5b" stroke="none"/>
  </g>
  <g transform="translate(1004, 554) scale(0.12) translate(-100, -96)" opacity="0.2">
    <path d="M100 188 C100 188 38 138 38 82 C38 40 64 12 100 4 C136 12 162 40 162 82 C162 138 100 188 100 188Z"
          fill="#2a5f5b" stroke="none"/>
  </g>
</svg>
