<?xml version="1.0" encoding="UTF-8"?>
<!--
  THE VINE - Business Card (Back, Square)
  Size: 2.5" x 2.5" (square), 300 DPI = 750 x 750 units
  Print: Export as PDF or print directly. Rounded corners.

  Colors: Editorial palette light (matches card front and site)
    Paper: #f4ede0 (warm newsprint background)
    Ink: #1f1d18 (primary text)
    Rust: #c8553d (accent)
    Gold: #b88828 (tagline)
-->
<svg xmlns="http://www.w3.org/2000/svg" viewBox="0 0 750 750" width="750" height="750">
  <!-- Card background (warm newsprint paper, matches front) -->
  <rect width="750" height="750" fill="#f4ede0" rx="48"/>

  <!-- Editorial border frame (rounded) -->
  <rect x="24" y="24" width="702" height="702" fill="none" stroke="#1f1d18" stroke-width="1.5" rx="36"/>

  <!-- Top-left small leaf mark -->
  <g transform="translate(55, 55) scale(0.25) translate(-100, -96)" opacity="0.2">
    <path d="M100 188 C100 188 38 138 38 82 C38 40 64 12 100 4 C136 12 162 40 162 82 C162 138 100 188 100 188Z"
          fill="#2a5f5b" stroke="none"/>
    <circle cx="100" cy="156" r="8" fill="#b88828" opacity="0.7"/>
  </g>

  <!-- Header -->
  <text x="375" y="105" text-anchor="middle"
        font-family="'Playfair Display', Georgia, serif"
        font-size="38" font-weight="700" font-style="italic" fill="#c8553d"
        letter-spacing="1px">Connect With Us</text>

  <!-- Divider -->
  <line x1="100" y1="130" x2="650" y2="130" stroke="#c8553d" stroke-width="2" opacity="0.4"/>

  <!-- Left column: Contact -->
  <g transform="translate(100, 175)">
    <text x="0" y="0" font-family="'JetBrains Mono', monospace" font-size="14" fill="#8e8775" letter-spacing="1.5px">EMAIL</text>
    <text x="0" y="30" font-family="'Inter', sans-serif" font-size="22" fill="#1f1d18">hello@thevineathens.church</text>

    <text x="0" y="78" font-family="'JetBrains Mono', monospace" font-size="14" fill="#8e8775" letter-spacing="1.5px">PHONE</text>
    <text x="0" y="108" font-family="'Inter', sans-serif" font-size="26" fill="#1f1d18">(423) 216-4433</text>

    <text x="0" y="156" font-family="'JetBrains Mono', monospace" font-size="14" fill="#8e8775" letter-spacing="1.5px">ONLINE</text>
    <text x="0" y="186" font-family="'Inter', sans-serif" font-size="22" fill="#1f1d18">thevineathens.church</text>
  </g>

  <!-- Right column: Location -->
  <g transform="translate(460, 175)">
    <text x="0" y="0" font-family="'JetBrains Mono', monospace" font-size="14" fill="#8e8775" letter-spacing="1.5px">LOCATION</text>
    <text x="0" y="30" font-family="'Inter', sans-serif" font-size="22" fill="#1f1d18">Athens, TN</text>
    <text x="0" y="58" font-family="'Lora', Georgia, serif" font-size="18" font-style="italic" fill="#6b6556">Ocoee River Region</text>
  </g>

  <!-- QR Code (native SVG, 29x29 modules, ink on paper) -->
  <g transform="translate(285, 410) scale(6.2069)">
    <g fill="#1f1d18">
      <rect x="0" y="0" width="1" height="1"/>
      <rect x="1" y="0" width="1" height="1"/>
      <rect x="2" y="0" width="1" height="1"/>
      <rect x="3" y="0" width="1" height="1"/>
      <rect x="4" y="0" width="1" height="1"/>
      <rect x="5" y="0" width="1" height="1"/>
      <rect x="6" y="0" width="1" height="1"/>
      <rect x="11" y="0" width="1" height="1"/>
      <rect x="13" y="0" width="1" height="1"/>
      <rect x="16" y="0" width="1" height="1"/>
      <rect x="18" y="0" width="1" height="1"/>
      <rect x="19" y="0" width="1" height="1"/>
      <rect x="22" y="0" width="1" height="1"/>
      <rect x="23" y="0" width="1" height="1"/>
      <rect x="24" y="0" width="1" height="1"/>
      <rect x="25" y="0" width="1" height="1"/>
      <rect x="26" y="0" width="1" height="1"/>
      <rect x="27" y="0" width="1" height="1"/>
      <rect x="28" y="0" width="1" height="1"/>
      <rect x="0" y="1" width="1" height="1"/>
      <rect x="6" y="1" width="1" height="1"/>
      <rect x="8" y="1" width="1" height="1"/>
      <rect x="9" y="1" width="1" height="1"/>
      <rect x="10" y="1" width="1" height="1"/>
      <rect x="12" y="1" width="1" height="1"/>
      <rect x="14" y="1" width="1" height="1"/>
      <rect x="15" y="1" width="1" height="1"/>
      <rect x="16" y="1" width="1" height="1"/>
      <rect x="19" y="1" width="1" height="1"/>
      <rect x="22" y="1" width="1" height="1"/>
      <rect x="28" y="1" width="1" height="1"/>
      <rect x="0" y="2" width="1" height="1"/>
      <rect x="2" y="2" width="1" height="1"/>
      <rect x="3" y="2" width="1" height="1"/>
      <rect x="4" y="2" width="1" height="1"/>
      <rect x="6" y="2" width="1" height="1"/>
      <rect x="10" y="2" width="1" height="1"/>
      <rect x="12" y="2" width="1" height="1"/>
      <rect x="13" y="2" width="1" height="1"/>
      <rect x="14" y="2" width="1" height="1"/>
      <rect x="16" y="2" width="1" height="1"/>
      <rect x="19" y="2" width="1" height="1"/>
      <rect x="22" y="2" width="1" height="1"/>
      <rect x="24" y="2" width="1" height="1"/>
      <rect x="25" y="2" width="1" height="1"/>
      <rect x="26" y="2" width="1" height="1"/>
      <rect x="28" y="2" width="1" height="1"/>
      <rect x="0" y="3" width="1" height="1"/>
      <rect x="2" y="3" width="1" height="1"/>
      <rect x="3" y="3" width="1" height="1"/>
      <rect x="4" y="3" width="1" height="1"/>
      <rect x="6" y="3" width="1" height="1"/>
      <rect x="9" y="3" width="1" height="1"/>
      <rect x="11" y="3" width="1" height="1"/>
      <rect x="12" y="3" width="1" height="1"/>
      <rect x="13" y="3" width="1" height="1"/>
      <rect x="14" y="3" width="1" height="1"/>
      <rect x="15" y="3" width="1" height="1"/>
      <rect x="18" y="3" width="1" height="1"/>
      <rect x="22" y="3" width="1" height="1"/>
      <rect x="24" y="3" width="1" height="1"/>
      <rect x="25" y="3" width="1" height="1"/>
      <rect x="26" y="3" width="1" height="1"/>
      <rect x="28" y="3" width="1" height="1"/>
      <rect x="0" y="4" width="1" height="1"/>
      <rect x="2" y="4" width="1" height="1"/>
      <rect x="3" y="4" width="1" height="1"/>
      <rect x="4" y="4" width="1" height="1"/>
      <rect x="6" y="4" width="1" height="1"/>
      <rect x="8" y="4" width="1" height="1"/>
      <rect x="9" y="4" width="1" height="1"/>
      <rect x="10" y="4" width="1" height="1"/>
      <rect x="12" y="4" width="1" height="1"/>
      <rect x="14" y="4" width="1" height="1"/>
      <rect x="17" y="4" width="1" height="1"/>
      <rect x="18" y="4" width="1" height="1"/>
      <rect x="19" y="4" width="1" height="1"/>
      <rect x="20" y="4" width="1" height="1"/>
      <rect x="22" y="4" width="1" height="1"/>
      <rect x="24" y="4" width="1" height="1"/>
      <rect x="25" y="4" width="1" height="1"/>
      <rect x="26" y="4" width="1" height="1"/>
      <rect x="28" y="4" width="1" height="1"/>
      <rect x="0" y="5" width="1" height="1"/>
      <rect x="6" y="5" width="1" height="1"/>
      <rect x="9" y="5" width="1" height="1"/>
      <rect x="13" y="5" width="1" height="1"/>
      <rect x="17" y="5" width="1" height="1"/>
      <rect x="19" y="5" width="1" height="1"/>
      <rect x="20" y="5" width="1" height="1"/>
      <rect x="22" y="5" width="1" height="1"/>
      <rect x="28" y="5" width="1" height="1"/>
      <rect x="0" y="6" width="1" height="1"/>
      <rect x="1" y="6" width="1" height="1"/>
      <rect x="2" y="6" width="1" height="1"/>
      <rect x="3" y="6" width="1" height="1"/>
      <rect x="4" y="6" width="1" height="1"/>
      <rect x="5" y="6" width="1" height="1"/>
      <rect x="6" y="6" width="1" height="1"/>
      <rect x="8" y="6" width="1" height="1"/>
      <rect x="10" y="6" width="1" height="1"/>
      <rect x="12" y="6" width="1" height="1"/>
      <rect x="14" y="6" width="1" height="1"/>
      <rect x="16" y="6" width="1" height="1"/>
      <rect x="18" y="6" width="1" height="1"/>
      <rect x="20" y="6" width="1" height="1"/>
      <rect x="22" y="6" width="1" height="1"/>
      <rect x="23" y="6" width="1" height="1"/>
      <rect x="24" y="6" width="1" height="1"/>
      <rect x="25" y="6" width="1" height="1"/>
      <rect x="26" y="6" width="1" height="1"/>
      <rect x="27" y="6" width="1" height="1"/>
      <rect x="28" y="6" width="1" height="1"/>
      <rect x="9" y="7" width="1" height="1"/>
      <rect x="10" y="7" width="1" height="1"/>
      <rect x="11" y="7" width="1" height="1"/>
      <rect x="12" y="7" width="1" height="1"/>
      <rect x="13" y="7" width="1" height="1"/>
      <rect x="14" y="7" width="1" height="1"/>
      <rect x="16" y="7" width="1" height="1"/>
      <rect x="17" y="7" width="1" height="1"/>
      <rect x="0" y="8" width="1" height="1"/>
      <rect x="2" y="8" width="1" height="1"/>
      <rect x="4" y="8" width="1" height="1"/>
      <rect x="6" y="8" width="1" height="1"/>
      <rect x="9" y="8" width="1" height="1"/>
      <rect x="11" y="8" width="1" height="1"/>
      <rect x="14" y="8" width="1" height="1"/>
      <rect x="15" y="8" width="1" height="1"/>
      <rect x="17" y="8" width="1" height="1"/>
      <rect x="24" y="8" width="1" height="1"/>
      <rect x="27" y="8" width="1" height="1"/>
      <rect x="0" y="9" width="1" height="1"/>
      <rect x="1" y="9" width="1" height="1"/>
      <rect x="2" y="9" width="1" height="1"/>
      <rect x="5" y="9" width="1" height="1"/>
      <rect x="11" y="9" width="1" height="1"/>
      <rect x="14" y="9" width="1" height="1"/>
      <rect x="15" y="9" width="1" height="1"/>
      <rect x="17" y="9" width="1" height="1"/>
      <rect x="18" y="9" width="1" height="1"/>
      <rect x="20" y="9" width="1" height="1"/>
      <rect x="21" y="9" width="1" height="1"/>
      <rect x="22" y="9" width="1" height="1"/>
      <rect x="25" y="9" width="1" height="1"/>
      <rect x="28" y="9" width="1" height="1"/>
      <rect x="2" y="10" width="1" height="1"/>
      <rect x="4" y="10" width="1" height="1"/>
      <rect x="6" y="10" width="1" height="1"/>
      <rect x="8" y="10" width="1" height="1"/>
      <rect x="9" y="10" width="1" height="1"/>
      <rect x="11" y="10" width="1" height="1"/>
      <rect x="13" y="10" width="1" height="1"/>
      <rect x="20" y="10" width="1" height="1"/>
      <rect x="26" y="10" width="1" height="1"/>
      <rect x="27" y="10" width="1" height="1"/>
      <rect x="28" y="10" width="1" height="1"/>
      <rect x="1" y="11" width="1" height="1"/>
      <rect x="2" y="11" width="1" height="1"/>
      <rect x="3" y="11" width="1" height="1"/>
      <rect x="5" y="11" width="1" height="1"/>
      <rect x="7" y="11" width="1" height="1"/>
      <rect x="9" y="11" width="1" height="1"/>
      <rect x="10" y="11" width="1" height="1"/>
      <rect x="12" y="11" width="1" height="1"/>
      <rect x="15" y="11" width="1" height="1"/>
      <rect x="17" y="11" width="1" height="1"/>
      <rect x="18" y="11" width="1" height="1"/>
      <rect x="20" y="11" width="1" height="1"/>
      <rect x="27" y="11" width="1" height="1"/>
      <rect x="2" y="12" width="1" height="1"/>
      <rect x="3" y="12" width="1" height="1"/>
      <rect x="4" y="12" width="1" height="1"/>
      <rect x="6" y="12" width="1" height="1"/>
      <rect x="10" y="12" width="1" height="1"/>
      <rect x="16" y="12" width="1" height="1"/>
      <rect x="17" y="12" width="1" height="1"/>
      <rect x="19" y="12" width="1" height="1"/>
      <rect x="20" y="12" width="1" height="1"/>
      <rect x="21" y="12" width="1" height="1"/>
      <rect x="22" y="12" width="1" height="1"/>
      <rect x="23" y="12" width="1" height="1"/>
      <rect x="25" y="12" width="1" height="1"/>
      <rect x="27" y="12" width="1" height="1"/>
      <rect x="28" y="12" width="1" height="1"/>
      <rect x="0" y="13" width="1" height="1"/>
      <rect x="2" y="13" width="1" height="1"/>
      <rect x="5" y="13" width="1" height="1"/>
      <rect x="8" y="13" width="1" height="1"/>
      <rect x="9" y="13" width="1" height="1"/>
      <rect x="13" y="13" width="1" height="1"/>
      <rect x="15" y="13" width="1" height="1"/>
      <rect x="16" y="13" width="1" height="1"/>
      <rect x="17" y="13" width="1" height="1"/>
      <rect x="18" y="13" width="1" height="1"/>
      <rect x="20" y="13" width="1" height="1"/>
      <rect x="21" y="13" width="1" height="1"/>
      <rect x="22" y="13" width="1" height="1"/>
      <rect x="25" y="13" width="1" height="1"/>
      <rect x="28" y="13" width="1" height="1"/>
      <rect x="2" y="14" width="1" height="1"/>
      <rect x="6" y="14" width="1" height="1"/>
      <rect x="7" y="14" width="1" height="1"/>
      <rect x="8" y="14" width="1" height="1"/>
      <rect x="9" y="14" width="1" height="1"/>
      <rect x="10" y="14" width="1" height="1"/>
      <rect x="12" y="14" width="1" height="1"/>
      <rect x="14" y="14" width="1" height="1"/>
      <rect x="15" y="14" width="1" height="1"/>
      <rect x="16" y="14" width="1" height="1"/>
      <rect x="17" y="14" width="1" height="1"/>
      <rect x="18" y="14" width="1" height="1"/>
      <rect x="21" y="14" width="1" height="1"/>
      <rect x="23" y="14" width="1" height="1"/>
      <rect x="24" y="14" width="1" height="1"/>
      <rect x="25" y="14" width="1" height="1"/>
      <rect x="27" y="14" width="1" height="1"/>
      <rect x="28" y="14" width="1" height="1"/>
      <rect x="0" y="15" width="1" height="1"/>
      <rect x="1" y="15" width="1" height="1"/>
      <rect x="2" y="15" width="1" height="1"/>
      <rect x="3" y="15" width="1" height="1"/>
      <rect x="5" y="15" width="1" height="1"/>
      <rect x="7" y="15" width="1" height="1"/>
      <rect x="12" y="15" width="1" height="1"/>
      <rect x="13" y="15" width="1" height="1"/>
      <rect x="14" y="15" width="1" height="1"/>
      <rect x="16" y="15" width="1" height="1"/>
      <rect x="17" y="15" width="1" height="1"/>
      <rect x="19" y="15" width="1" height="1"/>
      <rect x="20" y="15" width="1" height="1"/>
      <rect x="21" y="15" width="1" height="1"/>
      <rect x="22" y="15" width="1" height="1"/>
      <rect x="25" y="15" width="1" height="1"/>
      <rect x="27" y="15" width="1" height="1"/>
      <rect x="4" y="16" width="1" height="1"/>
      <rect x="5" y="16" width="1" height="1"/>
      <rect x="6" y="16" width="1" height="1"/>
      <rect x="8" y="16" width="1" height="1"/>
      <rect x="10" y="16" width="1" height="1"/>
      <rect x="12" y="16" width="1" height="1"/>
      <rect x="14" y="16" width="1" height="1"/>
      <rect x="15" y="16" width="1" height="1"/>
      <rect x="17" y="16" width="1" height="1"/>
      <rect x="20" y="16" width="1" height="1"/>
      <rect x="21" y="16" width="1" height="1"/>
      <rect x="22" y="16" width="1" height="1"/>
      <rect x="25" y="16" width="1" height="1"/>
      <rect x="27" y="16" width="1" height="1"/>
      <rect x="28" y="16" width="1" height="1"/>
      <rect x="3" y="17" width="1" height="1"/>
      <rect x="5" y="17" width="1" height="1"/>
      <rect x="7" y="17" width="1" height="1"/>
      <rect x="11" y="17" width="1" height="1"/>
      <rect x="14" y="17" width="1" height="1"/>
      <rect x="15" y="17" width="1" height="1"/>
      <rect x="17" y="17" width="1" height="1"/>
      <rect x="20" y="17" width="1" height="1"/>
      <rect x="21" y="17" width="1" height="1"/>
      <rect x="22" y="17" width="1" height="1"/>
      <rect x="25" y="17" width="1" height="1"/>
      <rect x="26" y="17" width="1" height="1"/>
      <rect x="28" y="17" width="1" height="1"/>
      <rect x="0" y="18" width="1" height="1"/>
      <rect x="2" y="18" width="1" height="1"/>
      <rect x="3" y="18" width="1" height="1"/>
      <rect x="4" y="18" width="1" height="1"/>
      <rect x="6" y="18" width="1" height="1"/>
      <rect x="7" y="18" width="1" height="1"/>
      <rect x="9" y="18" width="1" height="1"/>
      <rect x="10" y="18" width="1" height="1"/>
      <rect x="12" y="18" width="1" height="1"/>
      <rect x="13" y="18" width="1" height="1"/>
      <rect x="17" y="18" width="1" height="1"/>
      <rect x="18" y="18" width="1" height="1"/>
      <rect x="20" y="18" width="1" height="1"/>
      <rect x="21" y="18" width="1" height="1"/>
      <rect x="22" y="18" width="1" height="1"/>
      <rect x="24" y="18" width="1" height="1"/>
      <rect x="27" y="18" width="1" height="1"/>
      <rect x="28" y="18" width="1" height="1"/>
      <rect x="1" y="19" width="1" height="1"/>
      <rect x="2" y="19" width="1" height="1"/>
      <rect x="3" y="19" width="1" height="1"/>
      <rect x="8" y="19" width="1" height="1"/>
      <rect x="11" y="19" width="1" height="1"/>
      <rect x="12" y="19" width="1" height="1"/>
      <rect x="15" y="19" width="1" height="1"/>
      <rect x="17" y="19" width="1" height="1"/>
      <rect x="18" y="19" width="1" height="1"/>
      <rect x="19" y="19" width="1" height="1"/>
      <rect x="23" y="19" width="1" height="1"/>
      <rect x="24" y="19" width="1" height="1"/>
      <rect x="25" y="19" width="1" height="1"/>
      <rect x="27" y="19" width="1" height="1"/>
      <rect x="0" y="20" width="1" height="1"/>
      <rect x="2" y="20" width="1" height="1"/>
      <rect x="5" y="20" width="1" height="1"/>
      <rect x="6" y="20" width="1" height="1"/>
      <rect x="8" y="20" width="1" height="1"/>
      <rect x="11" y="20" width="1" height="1"/>
      <rect x="12" y="20" width="1" height="1"/>
      <rect x="16" y="20" width="1" height="1"/>
      <rect x="17" y="20" width="1" height="1"/>
      <rect x="19" y="20" width="1" height="1"/>
      <rect x="20" y="20" width="1" height="1"/>
      <rect x="21" y="20" width="1" height="1"/>
      <rect x="22" y="20" width="1" height="1"/>
      <rect x="23" y="20" width="1" height="1"/>
      <rect x="24" y="20" width="1" height="1"/>
      <rect x="8" y="21" width="1" height="1"/>
      <rect x="9" y="21" width="1" height="1"/>
      <rect x="10" y="21" width="1" height="1"/>
      <rect x="11" y="21" width="1" height="1"/>
      <rect x="13" y="21" width="1" height="1"/>
      <rect x="15" y="21" width="1" height="1"/>
      <rect x="16" y="21" width="1" height="1"/>
      <rect x="19" y="21" width="1" height="1"/>
      <rect x="20" y="21" width="1" height="1"/>
      <rect x="24" y="21" width="1" height="1"/>
      <rect x="26" y="21" width="1" height="1"/>
      <rect x="27" y="21" width="1" height="1"/>
      <rect x="28" y="21" width="1" height="1"/>
      <rect x="0" y="22" width="1" height="1"/>
      <rect x="1" y="22" width="1" height="1"/>
      <rect x="2" y="22" width="1" height="1"/>
      <rect x="3" y="22" width="1" height="1"/>
      <rect x="4" y="22" width="1" height="1"/>
      <rect x="5" y="22" width="1" height="1"/>
      <rect x="6" y="22" width="1" height="1"/>
      <rect x="9" y="22" width="1" height="1"/>
      <rect x="10" y="22" width="1" height="1"/>
      <rect x="12" y="22" width="1" height="1"/>
      <rect x="14" y="22" width="1" height="1"/>
      <rect x="15" y="22" width="1" height="1"/>
      <rect x="16" y="22" width="1" height="1"/>
      <rect x="18" y="22" width="1" height="1"/>
      <rect x="19" y="22" width="1" height="1"/>
      <rect x="20" y="22" width="1" height="1"/>
      <rect x="22" y="22" width="1" height="1"/>
      <rect x="24" y="22" width="1" height="1"/>
      <rect x="25" y="22" width="1" height="1"/>
      <rect x="27" y="22" width="1" height="1"/>
      <rect x="28" y="22" width="1" height="1"/>
      <rect x="0" y="23" width="1" height="1"/>
      <rect x="6" y="23" width="1" height="1"/>
      <rect x="9" y="23" width="1" height="1"/>
      <rect x="10" y="23" width="1" height="1"/>
      <rect x="11" y="23" width="1" height="1"/>
      <rect x="13" y="23" width="1" height="1"/>
      <rect x="14" y="23" width="1" height="1"/>
      <rect x="16" y="23" width="1" height="1"/>
      <rect x="17" y="23" width="1" height="1"/>
      <rect x="20" y="23" width="1" height="1"/>
      <rect x="24" y="23" width="1" height="1"/>
      <rect x="25" y="23" width="1" height="1"/>
      <rect x="27" y="23" width="1" height="1"/>
      <rect x="0" y="24" width="1" height="1"/>
      <rect x="2" y="24" width="1" height="1"/>
      <rect x="3" y="24" width="1" height="1"/>
      <rect x="4" y="24" width="1" height="1"/>
      <rect x="6" y="24" width="1" height="1"/>
      <rect x="8" y="24" width="1" height="1"/>
      <rect x="9" y="24" width="1" height="1"/>
      <rect x="11" y="24" width="1" height="1"/>
      <rect x="12" y="24" width="1" height="1"/>
      <rect x="14" y="24" width="1" height="1"/>
      <rect x="15" y="24" width="1" height="1"/>
      <rect x="18" y="24" width="1" height="1"/>
      <rect x="20" y="24" width="1" height="1"/>
      <rect x="21" y="24" width="1" height="1"/>
      <rect x="22" y="24" width="1" height="1"/>
      <rect x="23" y="24" width="1" height="1"/>
      <rect x="24" y="24" width="1" height="1"/>
      <rect x="27" y="24" width="1" height="1"/>
      <rect x="0" y="25" width="1" height="1"/>
      <rect x="2" y="25" width="1" height="1"/>
      <rect x="3" y="25" width="1" height="1"/>
      <rect x="4" y="25" width="1" height="1"/>
      <rect x="6" y="25" width="1" height="1"/>
      <rect x="10" y="25" width="1" height="1"/>
      <rect x="12" y="25" width="1" height="1"/>
      <rect x="14" y="25" width="1" height="1"/>
      <rect x="15" y="25" width="1" height="1"/>
      <rect x="19" y="25" width="1" height="1"/>
      <rect x="23" y="25" width="1" height="1"/>
      <rect x="24" y="25" width="1" height="1"/>
      <rect x="26" y="25" width="1" height="1"/>
      <rect x="0" y="26" width="1" height="1"/>
      <rect x="2" y="26" width="1" height="1"/>
      <rect x="3" y="26" width="1" height="1"/>
      <rect x="4" y="26" width="1" height="1"/>
      <rect x="6" y="26" width="1" height="1"/>
      <rect x="8" y="26" width="1" height="1"/>
      <rect x="10" y="26" width="1" height="1"/>
      <rect x="14" y="26" width="1" height="1"/>
      <rect x="17" y="26" width="1" height="1"/>
      <rect x="19" y="26" width="1" height="1"/>
      <rect x="20" y="26" width="1" height="1"/>
      <rect x="23" y="26" width="1" height="1"/>
      <rect x="24" y="26" width="1" height="1"/>
      <rect x="25" y="26" width="1" height="1"/>
      <rect x="28" y="26" width="1" height="1"/>
      <rect x="0" y="27" width="1" height="1"/>
      <rect x="6" y="27" width="1" height="1"/>
      <rect x="10" y="27" width="1" height="1"/>
      <rect x="11" y="27" width="1" height="1"/>
      <rect x="13" y="27" width="1" height="1"/>
      <rect x="14" y="27" width="1" height="1"/>
      <rect x="15" y="27" width="1" height="1"/>
      <rect x="20" y="27" width="1" height="1"/>
      <rect x="21" y="27" width="1" height="1"/>
      <rect x="23" y="27" width="1" height="1"/>
      <rect x="27" y="27" width="1" height="1"/>
      <rect x="0" y="28" width="1" height="1"/>
      <rect x="1" y="28" width="1" height="1"/>
      <rect x="2" y="28" width="1" height="1"/>
      <rect x="3" y="28" width="1" height="1"/>
      <rect x="4" y="28" width="1" height="1"/>
      <rect x="5" y="28" width="1" height="1"/>
      <rect x="6" y="28" width="1" height="1"/>
      <rect x="8" y="28" width="1" height="1"/>
      <rect x="9" y="28" width="1" height="1"/>
      <rect x="10" y="28" width="1" height="1"/>
      <rect x="11" y="28" width="1" height="1"/>
      <rect x="13" y="28" width="1" height="1"/>
      <rect x="16" y="28" width="1" height="1"/>
      <rect x="19" y="28" width="1" height="1"/>
      <rect x="20" y="28" width="1" height="1"/>
      <rect x="21" y="28" width="1" height="1"/>
      <rect x="22" y="28" width="1" height="1"/>
      <rect x="23" y="28" width="1" height="1"/>
      <rect x="24" y="28" width="1" height="1"/>
      <rect x="25" y="28" width="1" height="1"/>
      <rect x="27" y="28" width="1" height="1"/>
      <rect x="28" y="28" width="1" height="1"/>
    </g>
  </g>

  <!-- Bottom tagline -->
  <text x="375" y="650" text-anchor="middle"
        font-family="'Caveat', cursive"
        font-size="22" fill="#b88828">No dress code. No judgment. Just Jesus and a lot of coffee.</text>

  <!-- Bottom-right small leaf mark -->
  <g transform="translate(695, 695) scale(0.12) translate(-100, -96)" opacity="0.2">
    <path d="M100 188 C100 188 38 138 38 82 C38 40 64 12 100 4 C136 12 162 40 162 82 C162 138 100 188 100 188Z"
          fill="#2a5f5b" stroke="none"/>
  </g>
</svg>
