<svg xmlns="http://www.w3.org/2000/svg" viewBox="0 0 200 200" width="200" height="200" role="img" aria-label="The Vine logo">
  <!--
    Block-print / woodcut treatment of the vine leaf mark.
    Flat fills, no gradients, deliberately graphic - meant to read
    like a printer's mark from an indie magazine masthead.
  -->

  <!-- Solid leaf body (teal) with thick ink outline -->
  <path d="M100 188 C100 188 38 138 38 82 C38 40 64 12 100 4 C136 12 162 40 162 82 C162 138 100 188 100 188Z"
        fill="#2a5f5b" stroke="#1f1d18" stroke-width="6" stroke-linejoin="round"/>

  <!-- Inner highlight stripe to add print-block depth -->
  <path d="M100 178 C100 178 50 132 50 82 C50 48 70 22 100 16 L100 178Z"
        fill="#357b76" opacity="0.6"/>

  <!-- Central trunk in cream/paper -->
  <path d="M100 32 L100 162" stroke="#f4ede0" stroke-width="6" stroke-linecap="round"/>

  <!-- Three branches, cream -->
  <path d="M100 60 C84 52 70 56 60 64" fill="none" stroke="#f4ede0" stroke-width="5" stroke-linecap="round"/>
  <path d="M100 92 C116 84 130 88 140 96" fill="none" stroke="#f4ede0" stroke-width="5" stroke-linecap="round"/>
  <path d="M100 124 C84 116 70 120 60 132" fill="none" stroke="#f4ede0" stroke-width="5" stroke-linecap="round"/>

  <!-- Leaf shapes at branch tips - flat block fills -->
  <ellipse cx="56" cy="64" rx="8" ry="4.5" fill="#f4ede0" transform="rotate(-30 56 64)"/>
  <ellipse cx="144" cy="96" rx="8" ry="4.5" fill="#f4ede0" transform="rotate(30 144 96)"/>
  <ellipse cx="56" cy="132" rx="8" ry="4.5" fill="#f4ede0" transform="rotate(-30 56 132)"/>

  <!-- Junction nodes in rust to anchor the eye -->
  <circle cx="100" cy="60" r="6" fill="#c8553d"/>
  <circle cx="100" cy="92" r="6" fill="#c8553d"/>
  <circle cx="100" cy="124" r="6" fill="#c8553d"/>

  <!-- Antique gold "fruit" at the base -->
  <circle cx="100" cy="156" r="8" fill="#b88828"/>
  <circle cx="100" cy="156" r="3" fill="#1f1d18" opacity="0.45"/>
</svg>
